<svg height="34" viewBox="0 0 194 34" width="194" xmlns="http://www.w3.org/2000/svg"><g fill="none" fill-rule="evenodd"><path d="m62.7785316 16.0382353c0 .4200021.1595529.7411754.4786633.9635294.3191105.2223541.6627628.3335294 1.0309671.3335294h4.8602734c1.202801 0 2.2276211-.3149968 3.0744912-.945.84687-.6300031 1.2702987-1.5996993 1.2702987-2.9091176s-.4234287-2.2791145-1.2702987-2.9091177c-.8468701-.63000313-1.8716902-.94499998-3.0744912-.94499998h-4.8602734c-.3682043 0-.7118566.08029332-1.0309671.24088236-.3191104.16058902-.4786633.47558592-.4786633.94500002zm14.9490228-2.5570588c0 1.3094183-.2454659 2.3717606-.736405 3.1870588-.4909392.8152982-1.0309642 1.4823503-1.6200912 2.0011765-.589127.5188261-1.1291519.9326455-1.6200911 1.2414706-.4909392.308825-.7364051.6361747-.7364051.9820588 0 .24706.0122733.4323523.0368203.5558823.1718287.2470601.4725244.6670559.9020962 1.26.4295717.5929442.8714104 1.2167615 1.3255291 1.8714706.4541187.6547092.8591375 1.2723501 1.2150683 1.8529412.3559309.5805911.5338937.9820577.5338937 1.2044118 0 .271766-.0981863.5064696-.294562.7041176-.1963757.1976481-.4357049.3644111-.7179949.5002941-.2822901.1358831-.5707125.240882-.865276.315s-.5523027.1111765-.7732253.1111765c-.0981878 0-.2393307-.0185292-.4234329-.0555882-.1841022-.0370591-.362065-.0864703-.5338937-.1482353-.1718287-.0617651-.3313815-.135882-.4786633-.222353-.1472817-.086471-.2454681-.1667643-.294562-.2408823l-3.9765873-6.1888236c-.1963757-.321178-.4418416-.5744108-.7364051-.7597058-.2945635-.1852951-.6504891-.2779412-1.0677874-.2779412h-2.8719797c-.3191105 0-.6013962.1111753-.8468658.3335294-.2454696.222354-.3682026.494116-.3682026.8152941l.0368203 5.7441177c0 .271766-.1165963.4755875-.3497924.6114705-.2331961.1358831-.5032086.2285292-.8100456.2779412s-.619806.0679413-.9389164.0555883c-.3191105-.012353-.5645764-.0185295-.7364051-.0185295-.4663922 0-.8223178-.0864697-1.0677873-.2594117-.2454696-.1729421-.3682026-.518821-.3682026-1.0376471l.0368203-21.4570588c0-.27176606.0981863-.48794037.294562-.64852941s.4295683-.24088235.6995848-.24088235h9.9046481c1.178254 0 2.2705773.18529226 3.2770026.55588235 1.0064252.37059009 1.8778292.89558484 2.6142379 1.575.7364088.67941516 1.3132536 1.50705394 1.7305519 2.48294121.4172983.9758872.6259443 2.0814644.6259443 3.3167647zm10.3014886-7.07823532c0-.24706006.1288696-.44470514.3866127-.59294118s.484799-.22235294.6811747-.22235294h16.2745516c.24547.07411802.423433.21617542.533894.42617647s.184101.44470458.220921.70411765c.036821.25941306.049094.51882223.036821.77823529-.012274.25941306-.01841.50029301-.01841.72264706 0 .32117808-.05523.59911647-.165692.83382353-.110461.23470705-.31297.43852855-.607534.61147059h-12.113863c-.1963757 0-.4050217.12352817-.6259443.37058825-.2209226.24706-.3313823.4694108-.3313823.6670588v3.15c0 .3458841.104323.6052933.3129722.7782353.2086491.172942.4725249.2594118.7916354.2594118h7.805894c.245469 0 .423432.1173517.533893.3520588.110462.234707.184101.506469.220922.8152941.03682.3088251.05523.6176455.05523.9264706v.6855882c0 .6670622-.282286 1.0994108-.846866 1.2970589h-7.6586122c-.2700166 0-.5400291.1297045-.8100456.3891176-.2700166.2594131-.4050228.5249986-.4050228.7967647v3.5576471c0 .345884.0981864.6114696.294562.7967647.1963757.185295.4663882.2779411.8100456.2779411h11.929762c.490939.2717661.736405.7164675.736405 1.3341177 0 .172942.006137.413822.01841.7226471.012274.308825-.006136.6114691-.05523.9079411-.049094.2964721-.12887.5558813-.239332.7782353-.110461.2223541-.300697.3335294-.570714.3335294h-16.0536301c-.1963757 0-.4357049-.0926461-.717995-.2779411-.28229-.1852951-.4234329-.3891166-.4234329-.6114706zm33.093225 13.37823532c0 .197648.061367.3705875.184102.5188235.122734.148236.282287.2223529.478663.2223529h4.676172c.171829 0 .325245-.0679405.460253-.2038235s.202512-.2902932.202512-.4632353c0-.074118-.116597-.4076441-.349793-1.0005882-.233196-.5929442-.490935-1.2414671-.773225-1.9455883-.28229-.7041211-.552303-1.3711733-.810046-2.0011764-.257743-.6300032-.423432-1.0191169-.497073-1.167353-.122735-.148236-.306834-.2223529-.552304-.2223529-.098188 0-.202511.0247056-.312972.0741176-.110461.0494121-.190238.1358818-.239332.2594118-.049094.098824-.141143.3088219-.276152.63-.135008.3211781-.294561.6917626-.478663 1.1117647s-.380475.8647035-.589124 1.3341177c-.208649.4694141-.392748.9017627-.552304 1.2970588-.159555.3952961-.294561.741175-.405023 1.037647-.110461.2964721-.165691.4694116-.165691.5188236zm1.509631-13.63764709c.122735-.24706006.325244-.4199995.607534-.51882353.28229-.09882402.533892-.14823529.754815-.14823529.270017 0 .619806.03705845 1.049377.11117647.429572.07411802.705721.25941028.828456.55588235l9.131423 21.93882349c.024547.024706.03682.0864701.03682.1852942 0 .24706-.098186.4261759-.294562.5373529s-.429568.1852939-.699585.2223529c-.270016.037059-.546165.0494119-.828455.0370589-.282291-.012353-.509346-.0185294-.681175-.0185294-.343658 0-.736403-.0494113-1.178248-.1482353-.441846-.0988241-.748678-.3458804-.920507-.7411765l-1.288708-3.1129412c-.098188-.197648-.239331-.3705875-.423433-.5188235-.184103-.1482361-.398885-.222353-.644355-.222353h-7.842714c-.073641 0-.171827.0308821-.294562.0926471s-.245467.1297055-.368202.2038235-.239331.1544114-.349793.2408824c-.110461.086471-.177964.1544115-.202511.2038235l-1.251889 3.1129412c-.073641.172942-.208647.3211758-.405022.4447059-.196376.12353-.411159.2099997-.644355.2594117s-.472525.0864705-.717995.1111765c-.245469.024706-.454115.0370588-.625944.0370588-.147282 0-.349791-.0061764-.607534-.0185294s-.503209-.043235-.736405-.092647c-.233196-.0494121-.435706-.1297054-.607535-.2408824-.171828-.111177-.257741-.2655872-.257741-.4632353zm41.488243 18.41823529c0 .098824-.024547.2470578-.073641.4447059-1.227348 1.4082423-2.657187 2.476761-4.289559 3.2055882-1.632373.7288272-3.369044 1.0932353-5.210066 1.0932353-1.69374 0-3.295405-.3088204-4.805043-.9264706-1.509638-.6176501-2.822881-1.4638181-3.939767-2.5385294-1.116887-1.0747112-2.006701-2.3532279-2.669469-3.8355882-.662767-1.4823604-.994146-3.0882267-.994146-4.8176471 0-1.7541264.331379-3.3723455.994146-4.8547059.662768-1.4823603 1.552582-2.76087694 2.669469-3.83558819 1.116886-1.07471126 2.430129-1.92087927 3.939767-2.53852942 1.509638-.61765014 3.111303-.92647058 4.805043-.92647058.834597 0 1.699864.09264613 2.595828.27794117.895964.18529505 1.767368.46323344 2.614238.83382353s1.638497.82146793 2.374906 1.35264706 1.362347 1.1426436 1.877833 1.83441177c.098188.14823603.147281.32117548.147281.51882352 0 .49412014-.141143.83382264-.423433 1.01911764-.28229.1852951-.595259.4014694-.938916.6485294-.220923.1482361-.454116.3149991-.699585.5002941-.24547.1852951-.503209.2779412-.773225.2779412-.294564 0-.601396-.166763-.920507-.5002941-.31911-.3335311-.730266-.6917628-1.233478-1.0747059-.503213-.3829431-1.123014-.74117479-1.859423-1.07470586-.736409-.33353108-1.656906-.50029412-2.761519-.50029412-1.080066 0-2.09875.21617431-3.056081.64852941-.957331.43235507-1.798052 1.01293757-2.522187 1.74176467-.724136.7288272-1.294844 1.5811716-1.712142 2.5570589-.417298.9758872-.625944 2.0073475-.625944 3.0944117 0 1.0870643.208646 2.1185246.625944 3.0944118s.988006 1.8282316 1.712142 2.5570588c.724135.7288272 1.564856 1.3094096 2.522187 1.7417647s1.976015.6485294 3.056081.6485294c1.178254 0 2.288987-.2347035 3.332233-.7041176s1.945333-1.1488191 2.706288-2.0382353c.294564-.12353.564576-.1852941.810046-.1852941.220923 0 .484799.0679405.791635.2038235.306837.135883.607533.3149989.902097.5373529.294563.2223541.540029.4694104.736405.7411765.196375.2717661.294562.5311752.294562.7782353zm10.301488-18.49235294c.147282-.22235405.337518-.38911709.570714-.50029411.233196-.11117703.490936-.19147034.773226-.24088236.28229-.04941201.564575-.07411764.846865-.07411764h.754816c.638221 0 1.092332.2841148 1.362349.85235294v7.52294121c0 .321178.098186.6052928.294562.8523529s.466388.3705882.810046.3705882h8.100455c.343658 0 .65049-.1173517.920507-.3520588.270016-.234707.405022-.5373511.405022-.9079412v-7.48588231c.319111-.46941411.70572-.71647047 1.159838-.74117647.454119-.02470601.926641-.03705883 1.41758-.03705883.368204 0 .693447.04941127.975737.1482353.28229.09882402.533892.30882192.754815.63l-.07364 22.27235291c-.196376.4941201-.527755.7597057-.994147.7967647-.466393.037059-.932778.0555883-1.39917.0555883-.368204 0-.699583-.0494113-.994147-.1482353-.294563-.098824-.576849-.2964691-.846866-.5929412v-8.2641176c0-.3458841-.116596-.6423518-.349792-.8894118-.233196-.2470601-.533892-.3705882-.902096-.3705882h-7.842714c-.368204 0-.699583.1544102-.994147.4632352-.294563.3088251-.441843.6361748-.441843.9820589v8.0047059c0 .296472-.141143.5064699-.423433.63-.28229.12353-.533892.1852941-.754815.1852941-.24547 0-.527755.0061764-.846866.0185294-.31911.012353-.625943.0000002-.920506-.0370588-.294564-.0370591-.564576-.1173524-.810046-.2408824-.245469-.12353-.429569-.3211751-.552304-.5929412z" fill="#69a3ff"/><path d="m23.6426423 1.2030465c1.5855149-1.59578791 4.1532369-1.60522102 5.7502838-.02112498l12.3537979 12.25361748c1.6269388 1.6680359 1.6024141 4.2686168-.0063759 5.8573819l-11.5374421 11.3933643-22.85737663-.0890251-3.5733931-3.5406339c-1.61642987-1.626725-1.61642987-4.227423-.02269443-5.8314847z" fill="#69a3ff"/><path d="m1.4751704 33.4558824c-.81471412 0-1.4751704-.5761042-1.4751704-1.2867648 0-.7106605.66045628-1.2867647 1.4751704-1.2867647h35.4040896c.8147141 0 1.4751704.5761042 1.4751704 1.2867647 0 .7106606-.6604563 1.2867648-1.4751704 1.2867648z" fill="#2b2f6a" fill-rule="nonzero"/></g></svg>